<?xml version="1.0" standalone="no"?>
<!DOCTYPE svg PUBLIC "-//W3C//DTD SVG 20010904//EN"
 "http://www.w3.org/TR/2001/REC-SVG-20010904/DTD/svg10.dtd">
<svg version="1.0" xmlns="http://www.w3.org/2000/svg"
 width="1158.000000pt" height="1156.000000pt" viewBox="0 0 1158.000000 1156.000000"
 preserveAspectRatio="xMidYMid meet">

<g transform="translate(0.000000,1156.000000) scale(0.100000,-0.100000)"
fill="#000000" stroke="none">
<path d="M5505 11553 c-121 -5 -405 -33 -545 -54 -2037 -296 -3767 -1655
-4532 -3559 -360 -895 -497 -1916 -382 -2840 197 -1584 1011 -2993 2279 -3945
801 -602 1751 -985 2750 -1109 450 -56 994 -56 1435 0 1011 128 1945 506 2755
1114 231 173 385 309 615 539 301 301 507 551 727 881 387 583 637 1159 812
1872 150 611 171 808 152 1423 -14 443 -37 665 -102 1005 -187 967 -605 1843
-1255 2625 -134 162 -529 558 -689 691 -1148 955 -2533 1423 -4020 1357z
m-2080 -1073 c139 -16 240 -46 363 -106 411 -203 563 -660 391 -1179 -157
-474 -565 -917 -1071 -1165 -456 -224 -911 -257 -1258 -94 -227 108 -372 276
-447 521 -24 80 -27 103 -27 258 0 182 8 240 61 405 37 118 159 356 240 470
83 115 295 336 420 436 411 331 911 501 1328 454z m3905 -2765 c288 -39 521
-154 731 -364 247 -246 369 -539 369 -885 0 -221 -39 -387 -137 -579 -151
-296 -412 -520 -731 -627 -238 -80 -528 -81 -774 -4 -248 78 -476 240 -637
454 -105 139 -192 337 -228 517 -23 119 -23 347 0 465 50 253 169 478 347 658
213 215 470 336 795 374 70 8 167 5 265 -9z m-2005 -2142 c89 -192 203 -357
359 -520 180 -188 341 -306 571 -419 462 -227 988 -264 1476 -104 416 137 792
420 1038 783 24 35 38 47 57 47 30 0 292 -57 509 -111 523 -131 1035 -293
1655 -525 290 -109 290 -109 290 -138 0 -44 -81 -346 -143 -536 -136 -416
-347 -869 -541 -1164 -108 -164 -149 -228 -163 -256 -23 -44 -256 -350 -358
-470 -138 -161 -505 -525 -660 -654 -489 -407 -988 -705 -1556 -929 -832 -329
-1731 -452 -2639 -362 -892 89 -1775 403 -2531 901 -158 104 -368 260 -530
394 -160 134 -555 529 -689 689 -534 644 -913 1371 -1125 2158 -24 93 -46 183
-47 202 l-3 33 205 77 c811 306 1689 564 2430 716 633 129 1311 218 1935 255
99 6 203 12 230 13 28 2 82 4 120 5 l70 1 40 -86z"/>
<path d="M7020 7424 c-84 -16 -193 -50 -256 -78 -257 -119 -455 -352 -536
-632 -20 -69 -23 -101 -23 -249 0 -135 4 -184 19 -240 113 -418 466 -708 891
-732 580 -33 1054 444 1022 1026 -23 412 -299 757 -702 877 -77 23 -112 27
-240 30 -82 1 -161 0 -175 -2z m365 -94 c249 -62 474 -245 585 -475 79 -162
106 -310 89 -485 -21 -202 -112 -391 -260 -539 -192 -192 -450 -286 -717 -260
-114 12 -192 33 -297 83 -247 118 -423 337 -492 612 -26 105 -23 304 6 413 46
172 123 302 254 428 131 126 283 203 465 238 99 19 260 12 367 -15z"/>
</g>
</svg>
